<?xml version="1.0" encoding="UTF-8" standalone="no"?>
<!DOCTYPE svg PUBLIC "-//W3C//DTD SVG 1.1//EN" "http://www.w3.org/Graphics/SVG/1.1/DTD/svg11.dtd">
<svg width="100%" height="100%" viewBox="0 0 300 300" version="1.1" xmlns="http://www.w3.org/2000/svg" xmlns:xlink="http://www.w3.org/1999/xlink" xml:space="preserve" xmlns:serif="http://www.serif.com/" style="fill-rule:evenodd;clip-rule:evenodd;stroke-linejoin:round;stroke-miterlimit:2;">
    <rect id="Artboard1" x="0" y="0" width="300" height="300" style="fill:none;"/>
    <clipPath id="_clip1">
        <rect id="Artboard11" serif:id="Artboard1" x="0" y="0" width="300" height="300"/>
    </clipPath>
    <g clip-path="url(#_clip1)">
        <path d="M300,23.004C300,10.308 289.692,-0 276.996,-0L23.004,-0C10.308,-0 0,10.308 0,23.004L0,276.996C0,289.692 10.308,300 23.004,300L276.996,300C289.692,300 300,289.692 300,276.996L300,23.004ZM280.51,275.653L265.347,154.351L267.489,154.351C269.876,154.351 271.841,152.387 271.841,150L271.841,132.594C271.841,130.207 269.876,128.243 267.489,128.243L262.391,128.243C260.041,107.517 251.947,87.854 239.026,71.479L244.458,66.048C245.273,65.232 245.732,64.125 245.732,62.971C245.732,61.817 245.273,60.71 244.458,59.894L231.403,46.84C230.587,46.024 229.48,45.565 228.326,45.565C227.173,45.565 226.065,46.024 225.249,46.84L219.818,52.271C203.443,39.35 183.78,31.257 163.054,28.906L163.054,23.808C163.054,21.421 161.09,19.456 158.703,19.456L141.297,19.456C138.91,19.456 136.946,21.421 136.946,23.808L136.946,28.906C116.22,31.257 96.557,39.35 80.182,52.271L74.751,46.84C73.935,46.024 72.827,45.565 71.674,45.565C70.52,45.565 69.413,46.024 68.597,46.84L55.542,59.894C54.727,60.71 54.268,61.817 54.268,62.971C54.268,64.125 54.727,65.232 55.542,66.048L60.974,71.479C48.053,87.854 39.959,107.517 37.609,128.243L32.511,128.243C30.124,128.243 28.159,130.207 28.159,132.594L28.159,150C28.159,152.387 30.124,154.351 32.511,154.351L34.652,154.351L19.49,275.653C19.467,275.832 19.456,276.012 19.456,276.192C19.456,278.579 21.42,280.544 23.807,280.544L41.214,280.544C43.398,280.544 45.261,278.899 45.531,276.732L54.812,202.481C56.722,205.439 58.776,208.317 60.974,211.115L55.542,216.546C54.726,217.362 54.267,218.47 54.267,219.623C54.267,220.777 54.726,221.885 55.542,222.7L68.596,235.755C69.412,236.57 70.52,237.029 71.673,237.029C72.827,237.029 73.935,236.57 74.75,235.755L80.177,230.328C90.653,238.565 102.507,244.878 115.188,248.974L115.188,254.435L102.134,254.435C99.747,254.435 97.783,256.399 97.783,258.786L97.783,276.192C97.783,278.579 99.747,280.544 102.134,280.544L197.866,280.544C200.253,280.544 202.217,278.579 202.217,276.192L202.217,258.786C202.217,256.399 200.253,254.435 197.866,254.435L184.812,254.435L184.812,248.974C197.493,244.878 209.347,238.565 219.823,230.328L225.249,235.755C226.065,236.57 227.173,237.029 228.326,237.029C229.48,237.029 230.587,236.57 231.403,235.755L244.458,222.7C245.273,221.885 245.732,220.777 245.732,219.623C245.732,218.47 245.273,217.362 244.458,216.546L239.026,211.115C241.223,208.32 243.277,205.442 245.188,202.481L254.468,276.732C254.739,278.899 256.602,280.544 258.786,280.544L276.193,280.544C278.58,280.544 280.544,278.579 280.544,276.192C280.544,276.012 280.533,275.832 280.51,275.653ZM262.628,271.841L260.452,254.435L269.087,254.435L271.263,271.841L262.628,271.841ZM28.737,271.841L30.913,254.435L39.548,254.435L37.372,271.841L28.737,271.841ZM193.515,271.841L167.406,271.841L167.406,263.138L193.515,263.138L193.515,271.841ZM158.703,271.841L141.297,271.841L141.297,228.326L158.703,228.326L158.703,271.841ZM106.485,263.138L132.594,263.138L132.594,271.841L106.485,271.841L106.485,263.138ZM123.891,251.403C126.761,252.08 129.662,252.645 132.594,253.099L132.594,254.435L123.891,254.435L123.891,251.403ZM176.109,254.435L167.406,254.435L167.406,253.099C170.337,252.646 173.237,252.081 176.109,251.403L176.109,254.435ZM40.635,245.732L32,245.732L41.171,172.371C42.852,178.287 45.019,184.053 47.651,189.611L40.635,245.732ZM258.829,172.372L268,245.732L259.365,245.732L252.348,189.611C254.98,184.053 257.148,178.287 258.829,172.371L258.829,172.372ZM167.406,235.44C170.343,234.9 173.244,234.225 176.109,233.415L176.109,242.439C173.244,243.176 170.343,243.79 167.406,244.282L167.406,235.44ZM132.594,244.281C129.66,243.79 126.759,243.175 123.891,242.438L123.891,233.415C126.751,234.226 129.652,234.901 132.594,235.44L132.594,244.281ZM86.381,224.124L92.6,217.905C99.526,223.1 107.125,227.332 115.188,230.485L115.188,239.791C104.818,236.125 95.095,230.836 86.381,224.124ZM184.812,239.791L184.812,230.485C192.875,227.332 200.474,223.1 207.4,217.905L213.619,224.124C204.905,230.836 195.182,236.125 184.812,239.791ZM167.406,226.575L167.406,223.975C167.406,221.588 165.442,219.623 163.054,219.623L136.946,219.623C134.558,219.623 132.594,221.588 132.594,223.975L132.594,226.575C129.656,225.979 126.751,225.228 123.891,224.327L123.891,197.866C123.894,195.48 125.857,193.517 128.243,193.515L132.594,193.515L132.594,197.866C132.594,200.253 134.558,202.217 136.946,202.217L163.054,202.217C165.442,202.217 167.406,200.253 167.406,197.866L167.406,193.515L171.757,193.515C174.143,193.517 176.106,195.48 176.109,197.866L176.109,224.327C173.249,225.228 170.344,225.979 167.406,226.575ZM71.674,226.524L64.773,219.623L78.949,205.447C81.131,207.863 83.435,210.165 85.851,212.347L71.674,226.524ZM228.326,226.524L214.149,212.347C216.565,210.165 218.869,207.863 221.051,205.447L235.227,219.623L228.326,226.524ZM184.812,221.049L184.812,197.866C184.804,190.708 178.916,184.82 171.757,184.812L167.406,184.812L167.406,180.46C167.406,178.073 165.442,176.109 163.054,176.109L154.351,176.109L154.351,167.09C169.271,164.936 180.46,152.016 180.46,136.942C180.46,120.232 166.71,106.482 150,106.482C133.29,106.482 119.54,120.232 119.54,136.942C119.54,152.016 130.729,164.936 145.649,167.09L145.649,176.109L136.946,176.109C134.558,176.109 132.594,178.073 132.594,180.46L132.594,184.812L128.243,184.812C121.084,184.82 115.196,190.708 115.188,197.866L115.188,221.049C84.279,207.46 62.971,176.372 62.971,141.297C62.971,93.309 102.012,54.268 150,54.268C197.988,54.268 237.029,93.309 237.029,141.297C237.029,176.372 215.721,207.46 184.812,221.049ZM46.375,154.351L55.162,154.351C57.374,170.441 63.647,185.705 73.39,198.698L67.176,204.913C55.831,190.232 48.645,172.765 46.375,154.351ZM226.61,198.698C236.353,185.705 242.627,170.441 244.838,154.351L253.625,154.351C251.355,172.765 244.169,190.232 232.824,204.913L226.61,198.698ZM158.703,184.812L158.703,193.515L141.297,193.515L141.297,184.812L158.703,184.812ZM158.703,150C161.09,150 163.054,148.036 163.054,145.649L163.054,128.243C163.054,125.856 161.09,123.891 158.703,123.891L141.297,123.891C138.91,123.891 136.946,125.856 136.946,128.243L136.946,145.649C136.946,148.036 138.91,150 141.297,150L145.649,150L145.649,158.268C135.557,156.208 128.243,147.25 128.243,136.95C128.243,125.014 138.064,115.193 150,115.193C161.936,115.193 171.757,125.014 171.757,136.95C171.757,147.25 164.443,156.208 154.351,158.268L154.351,150L158.703,150ZM263.138,145.649L245.633,145.649C245.699,144.202 245.732,142.751 245.732,141.297C245.732,139.838 245.694,138.389 245.629,136.946L263.138,136.946L263.138,145.649ZM36.862,136.946L54.371,136.946C54.306,138.389 54.268,139.838 54.268,141.297C54.268,142.756 54.301,144.202 54.367,145.649L36.862,145.649L36.862,136.946ZM145.649,141.297L145.649,132.594L154.351,132.594L154.351,141.297L145.649,141.297ZM67.175,77.681L73.414,83.92C63.652,96.896 57.368,112.155 55.162,128.243L46.375,128.243C48.643,109.829 55.829,92.361 67.175,77.681ZM253.625,128.243L244.838,128.243C242.632,112.155 236.348,96.896 226.586,83.92L232.825,77.681C244.171,92.361 251.357,109.829 253.625,128.243ZM71.674,56.071L85.878,70.275C83.463,72.458 81.16,74.761 78.978,77.176L64.773,62.971L71.674,56.071ZM228.326,56.071L235.227,62.971L221.022,77.176C218.84,74.761 216.537,72.458 214.122,70.275L228.326,56.071ZM136.946,37.672L136.946,46.459C120.858,48.665 105.599,54.949 92.623,64.711L86.384,58.473C101.064,47.126 118.531,39.94 136.946,37.672ZM213.616,58.473L207.377,64.711C194.401,54.949 179.142,48.665 163.054,46.459L163.054,37.672C181.469,39.94 198.936,47.126 213.616,58.473ZM154.351,28.159L154.351,45.668C152.908,45.603 151.459,45.565 150,45.565C148.541,45.565 147.092,45.603 145.649,45.668L145.649,28.159L154.351,28.159Z" style="fill:rgb(59,83,96);"/>
    </g>
</svg>
