<?xml version="1.0" encoding="UTF-8" standalone="no"?>
<!DOCTYPE svg PUBLIC "-//W3C//DTD SVG 1.1//EN" "http://www.w3.org/Graphics/SVG/1.1/DTD/svg11.dtd">
<svg width="100%" height="100%" viewBox="0 0 300 300" version="1.1" xmlns="http://www.w3.org/2000/svg" xmlns:xlink="http://www.w3.org/1999/xlink" xml:space="preserve" xmlns:serif="http://www.serif.com/" style="fill-rule:evenodd;clip-rule:evenodd;stroke-linejoin:round;stroke-miterlimit:2;">
    <rect id="Artboard1" x="0" y="0" width="300" height="300" style="fill:none;"/>
    <clipPath id="_clip1">
        <rect id="Artboard11" serif:id="Artboard1" x="0" y="0" width="300" height="300"/>
    </clipPath>
    <g clip-path="url(#_clip1)">
        <path d="M300,23.004C300,10.308 289.692,-0 276.996,-0L23.004,-0C10.308,-0 0,10.308 0,23.004L0,276.996C0,289.692 10.308,300 23.004,300L276.996,300C289.692,300 300,289.692 300,276.996L300,23.004ZM145.577,88.543C141.531,87.422 137.537,86.285 133.561,85.143L128.628,93.671C123.373,96.849 119.824,102.565 119.824,109.157C119.824,113.901 121.685,118.182 124.664,121.413L124.664,276.769L138.583,276.769L138.583,127.245C148.321,126.921 156.131,118.97 156.131,109.156C156.131,101.746 151.681,95.399 145.314,92.579L147.368,89.03C146.769,88.861 146.178,88.704 145.577,88.543ZM138.583,114.533C138.377,114.555 138.196,114.653 137.977,114.653C134.939,114.653 132.475,112.189 132.475,109.151C132.475,106.113 134.939,103.646 137.977,103.646C138.196,103.646 138.377,103.745 138.583,103.769C141.323,104.085 143.482,106.325 143.482,109.15C143.477,111.978 141.323,114.222 138.583,114.533ZM51.477,55.436C73.667,64.285 102.903,73.991 134.728,83.129C138.515,84.218 142.322,85.3 146.178,86.372C146.968,86.591 147.748,86.794 148.535,87.014C203.669,102.191 253.082,111.965 274.862,111.965C283.698,111.965 284.601,110.294 284.699,109.958C286.175,104.646 245.425,85.225 167.784,62.812C167.203,62.647 166.611,62.475 166.025,62.308C162.965,61.426 159.849,60.546 156.673,59.658C155.712,59.392 154.778,59.121 153.809,58.853C149.446,57.643 145.141,56.485 140.855,55.342C139.817,55.067 138.783,54.795 137.749,54.519C137.176,54.372 136.603,54.218 136.034,54.067C87.256,41.281 44.849,33.26 25.121,33.26C16.285,33.26 15.378,34.931 15.283,35.264C15.133,35.792 14.908,40.858 51.477,55.436ZM144.864,43.823C144.348,43.688 143.826,43.62 143.296,43.62C140.492,43.62 138.037,45.52 137.334,48.238C136.981,49.574 137.188,50.93 137.721,52.176C143.22,53.621 148.771,55.11 154.406,56.672C158.797,57.887 163.194,59.137 167.58,60.407C168.85,59.589 169.834,58.338 170.234,56.802C170.658,55.204 170.419,53.544 169.587,52.122C168.752,50.698 167.414,49.689 165.816,49.271L164.049,48.811L146.479,44.238L144.864,43.823ZM168.078,34L150.565,29.231L147.075,42.064L164.644,46.64L168.078,34Z" style="fill:rgb(59,83,96);"/>
    </g>
</svg>
