<?xml version="1.0" encoding="UTF-8" standalone="no"?>
<!DOCTYPE svg PUBLIC "-//W3C//DTD SVG 1.1//EN" "http://www.w3.org/Graphics/SVG/1.1/DTD/svg11.dtd">
<svg width="100%" height="100%" viewBox="0 0 300 300" version="1.1" xmlns="http://www.w3.org/2000/svg" xmlns:xlink="http://www.w3.org/1999/xlink" xml:space="preserve" xmlns:serif="http://www.serif.com/" style="fill-rule:evenodd;clip-rule:evenodd;stroke-linejoin:round;stroke-miterlimit:2;">
    <rect id="Artboard1" x="0" y="0" width="300" height="300" style="fill:none;"/>
    <clipPath id="_clip1">
        <rect id="Artboard11" serif:id="Artboard1" x="0" y="0" width="300" height="300"/>
    </clipPath>
    <g clip-path="url(#_clip1)">
        <path d="M300,23.004C300,10.308 289.692,-0 276.996,-0L23.004,-0C10.308,-0 0,10.308 0,23.004L0,276.996C0,289.692 10.308,300 23.004,300L276.996,300C289.692,300 300,289.692 300,276.996L300,23.004ZM262.667,100.348L154.333,100.348L154.333,92.072L262.667,92.072C265.063,92.072 267,90.223 267,87.935C267,85.647 265.063,83.797 262.667,83.797L241,83.797C226.527,83.797 217.44,79.088 206.918,73.639C194.339,67.122 180.143,59.79 154.333,59.045L154.333,50.696C155.486,50.696 156.587,50.261 157.397,49.483L161.73,45.346C162.545,44.572 163,43.521 163,42.42L163,34.145C163,33.044 162.545,31.993 161.73,31.22L157.397,27.082C156.587,26.304 155.486,25.87 154.333,25.87L145.667,25.87C144.514,25.87 143.413,26.304 142.603,27.082L138.27,31.22C137.455,31.993 137,33.044 137,34.145L137,42.42C137,43.521 137.455,44.572 138.27,45.346L142.603,49.483C143.413,50.261 144.514,50.696 145.667,50.696L145.667,59.045C119.909,59.79 105.778,67.102 93.255,73.606C82.725,79.072 73.625,83.797 59,83.797L37.333,83.797C34.937,83.797 33,85.647 33,87.935C33,90.223 34.937,92.072 37.333,92.072L145.667,92.072L145.667,100.348L37.333,100.348C34.937,100.348 33,102.197 33,104.486C33,106.774 34.937,108.623 37.333,108.623L59,108.623C73.473,108.623 82.56,113.332 93.082,118.781C105.661,125.298 119.857,132.63 145.667,133.375L145.667,218.628L94.936,267.067C93.242,268.685 93.242,271.3 94.936,272.918C95.781,273.725 96.891,274.13 98,274.13C99.109,274.13 100.219,273.725 101.064,272.918L145.667,230.329L145.667,269.993C145.667,272.281 147.604,274.13 150,274.13C152.396,274.13 154.333,272.281 154.333,269.993L154.333,230.329L198.936,272.918C199.781,273.725 200.891,274.13 202,274.13C203.109,274.13 204.219,273.725 205.064,272.918C206.758,271.3 206.758,268.685 205.064,267.067L154.333,218.628L154.333,133.375C180.091,132.63 194.222,125.319 206.745,118.814C217.275,113.348 226.375,108.623 241,108.623L262.667,108.623C265.063,108.623 267,106.774 267,104.486C267,102.197 265.063,100.348 262.667,100.348Z" style="fill:rgb(59,83,96);"/>
    </g>
</svg>
