<?xml version="1.0" encoding="UTF-8" standalone="no"?>
<!DOCTYPE svg PUBLIC "-//W3C//DTD SVG 1.1//EN" "http://www.w3.org/Graphics/SVG/1.1/DTD/svg11.dtd">
<svg width="100%" height="100%" viewBox="0 0 300 300" version="1.1" xmlns="http://www.w3.org/2000/svg" xmlns:xlink="http://www.w3.org/1999/xlink" xml:space="preserve" xmlns:serif="http://www.serif.com/" style="fill-rule:evenodd;clip-rule:evenodd;stroke-linejoin:round;stroke-miterlimit:2;">
    <rect id="Artboard1" x="0" y="0" width="300" height="300" style="fill:none;"/>
    <clipPath id="_clip1">
        <rect id="Artboard11" serif:id="Artboard1" x="0" y="0" width="300" height="300"/>
    </clipPath>
    <g clip-path="url(#_clip1)">
        <path d="M300,23.004C300,10.308 289.692,-0 276.996,-0L23.004,-0C10.308,-0 0,10.308 0,23.004L0,276.996C0,289.692 10.308,300 23.004,300L276.996,300C289.692,300 300,289.692 300,276.996L300,23.004ZM162.281,87.243L137.719,87.243C138.779,108.981 137.062,130.743 132.616,152.055L142.886,152.055L142.886,183.37L94.188,261.287L110.965,261.287L130.587,229.893L142.886,242.193L142.886,261.287L157.114,261.287L157.114,242.193L169.414,229.893L189.035,261.287L205.812,261.287L157.114,183.37L157.114,152.055L167.385,152.055C162.938,130.743 161.221,108.98 162.281,87.243ZM123.007,80.25L100.319,80.25L100.319,95.708L86.092,95.708L86.092,80.25L66.462,80.25L66.462,95.708L52.235,95.708L52.235,80.25L29.547,80.25C26.692,115.668 31.638,151.332 44.229,184.912L53.312,209.133L99.24,209.133L108.323,184.912C120.916,151.333 125.862,115.669 123.007,80.25ZM270.453,80.25L247.766,80.25L247.766,95.708L233.538,95.708L233.538,80.25L213.908,80.25L213.908,95.708L199.681,95.708L199.681,80.25L176.993,80.25C174.138,115.669 179.084,151.333 191.677,184.911L200.759,209.133L246.688,209.133L255.77,184.911C268.362,151.332 273.308,115.668 270.453,80.25ZM268.891,66.023C268.083,60.259 267.067,54.51 265.841,48.786L263.681,38.713L183.765,38.713L181.607,48.787C180.38,54.51 179.364,60.26 178.556,66.023L268.891,66.023L268.891,66.023ZM121.444,66.023C120.636,60.259 119.62,54.51 118.394,48.786L116.235,38.713L36.319,38.713L34.16,48.786C32.934,54.51 31.917,60.259 31.109,66.023L121.444,66.023Z" style="fill:rgb(59,83,96);"/>
    </g>
</svg>
