<?xml version="1.0" encoding="UTF-8" standalone="no"?>
<!DOCTYPE svg PUBLIC "-//W3C//DTD SVG 1.1//EN" "http://www.w3.org/Graphics/SVG/1.1/DTD/svg11.dtd">
<svg width="100%" height="100%" viewBox="0 0 300 300" version="1.1" xmlns="http://www.w3.org/2000/svg" xmlns:xlink="http://www.w3.org/1999/xlink" xml:space="preserve" xmlns:serif="http://www.serif.com/" style="fill-rule:evenodd;clip-rule:evenodd;stroke-linejoin:round;stroke-miterlimit:2;">
    <path d="M300,23.004C300,10.308 289.692,-0 276.996,-0L23.004,-0C10.308,-0 0,10.308 0,23.004L0,276.996C0,289.692 10.308,300 23.004,300L276.996,300C289.692,300 300,289.692 300,276.996L300,23.004ZM265.435,59.712C265.435,54.958 262.339,50.916 258.06,49.488C256.554,37.051 245.94,27.381 233.103,27.381L66.897,27.381C54.06,27.381 43.446,37.051 41.94,49.488C37.661,50.916 34.565,54.958 34.565,59.712C34.565,64.44 37.628,68.464 41.872,69.912L48.81,237.357C44.694,238.874 41.75,242.836 41.75,247.473C41.75,252.255 44.882,256.318 49.202,257.722C50.661,266.171 58.037,272.619 66.897,272.619L233.103,272.619C241.963,272.619 249.339,266.171 250.798,257.722C255.118,256.318 258.25,252.255 258.25,247.473C258.25,242.836 255.306,238.874 251.19,237.357L258.128,69.912C262.372,68.464 265.435,64.44 265.435,59.712ZM233.103,265.435L66.897,265.435C62.213,265.435 58.22,262.431 56.737,258.25L243.263,258.25C241.78,262.431 237.787,265.435 233.103,265.435ZM195.144,251.065L104.856,251.065C102.875,251.065 101.264,249.454 101.264,247.473L101.264,243.88L198.736,243.88L198.736,247.473C198.736,249.454 197.125,251.065 195.144,251.065ZM52.527,251.065C50.546,251.065 48.935,249.454 48.935,247.473C48.935,245.492 50.546,243.88 52.527,243.88L83.302,243.88C85.286,243.88 86.894,242.272 86.894,240.288C86.894,238.304 85.286,236.696 83.302,236.696L55.974,236.696L49.087,70.489L57.532,70.489L93.546,139.652C89.491,142.947 86.894,147.972 86.894,153.592C86.894,159.456 89.719,164.672 94.079,167.952L94.079,247.473C94.079,248.732 94.298,249.941 94.697,251.065L52.527,251.065ZM247.473,251.065L205.303,251.065C205.702,249.941 205.921,248.732 205.921,247.473L205.921,243.88L247.473,243.88C249.454,243.88 251.065,245.492 251.065,247.473C251.065,249.454 249.454,251.065 247.473,251.065ZM205.921,236.696L205.921,167.952C210.281,164.672 213.106,159.457 213.106,153.592C213.106,147.972 210.509,142.947 206.454,139.651L242.468,70.489L250.913,70.489L244.026,236.696L205.921,236.696ZM115.633,236.696L115.633,167.952C119.993,164.672 122.818,159.457 122.818,153.592C122.818,147.972 120.221,142.947 116.166,139.652L150,74.675L183.834,139.652C179.779,142.947 177.182,147.972 177.182,153.593C177.182,159.457 180.007,164.672 184.367,167.953L184.367,236.696L115.633,236.696ZM101.264,171.193C102.425,171.429 103.626,171.554 104.856,171.554C106.086,171.554 107.287,171.429 108.448,171.193L108.448,236.696L101.264,236.696L101.264,171.193ZM191.552,236.696L191.552,171.193C192.713,171.429 193.914,171.554 195.144,171.554C196.374,171.554 197.575,171.429 198.736,171.193L198.736,236.696L191.552,236.696ZM195.144,164.369C189.201,164.369 184.367,159.535 184.367,153.592C184.367,147.65 189.201,142.815 195.144,142.815C201.087,142.815 205.921,147.65 205.921,153.592C205.921,159.535 201.087,164.369 195.144,164.369ZM104.856,164.369C98.913,164.369 94.079,159.535 94.079,153.592C94.079,147.65 98.913,142.815 104.856,142.815C110.799,142.815 115.633,147.65 115.633,153.592C115.633,159.535 110.799,164.369 104.856,164.369ZM104.856,135.631C103.143,135.631 101.486,135.877 99.916,136.327L65.633,70.489L144.079,70.489L109.796,136.327C108.226,135.877 106.569,135.631 104.856,135.631ZM195.144,135.631C193.431,135.631 191.775,135.877 190.204,136.327L155.921,70.489L234.367,70.489L200.084,136.327C198.513,135.877 196.857,135.631 195.144,135.631ZM146.408,56.12L146.408,63.304L63.304,63.304L63.304,56.12L146.408,56.12ZM153.592,63.304L153.592,56.12L236.696,56.12L236.696,63.304L153.592,63.304ZM254.657,63.304L243.88,63.304L243.88,56.12L254.657,56.12C256.639,56.12 258.25,57.731 258.25,59.712C258.25,61.693 256.639,63.304 254.657,63.304ZM45.343,56.12L56.12,56.12L56.12,63.304L45.343,63.304C43.361,63.304 41.75,61.693 41.75,59.712C41.75,57.731 43.361,56.12 45.343,56.12ZM66.897,34.565L233.103,34.565C241.778,34.565 249.035,40.746 250.703,48.935L49.297,48.935C50.965,40.746 58.222,34.565 66.897,34.565Z" style="fill:rgb(59,83,96);"/>
</svg>
